<svg xmlns="http://www.w3.org/2000/svg" viewBox="0 0 558.98 276.99"><defs><style>.cls-1{fill:#d1eaea;}.cls-2{fill:#d1ebea;}.cls-3{fill:#363737;}.cls-4{fill:#d0eae9;}.cls-5{fill:#cfe9e8;}.cls-6{fill:#fafafa;}.cls-7{fill:#cae2e1;}</style></defs><g id="Layer_2" data-name="Layer 2"><g id="Layer_1-2" data-name="Layer 1"><path class="cls-1" d="M412.14,152.2c.64,1.11,1,2.88,1.95,3.23,5.07,1.91,3.56,6.61,4.61,10.2.15.5-.19,1.6-.55,1.73-4.36,1.53-3,4.76-2.28,8.09l-6.61,2.36,2.16,4.52-3.85.53c-.73,5.67-.73,5.67,7.54,6.94L410,194.2l4.47,2.1c-5.64,4.87-3.31,10.87-2.8,16.26.29,3.13,2.41,6.23,4.19,9,2.75,4.33,1.28,14.29-2.76,20.27C406.7,251.26,397.33,256,387,259.05c-18.59,5.44-37.3,10.48-56,15.66a12.69,12.69,0,0,1-2.93.46c-21.09.7-42.17,1.91-63.25,1.81-9.8-.05-19.66-2.31-29.37-4.22-10.55-2.07-20.89-5.18-31.43-7.32-12.4-2.51-23.51-7.78-34.17-14.35-10.48-6.45-22-9.8-34.23-11-1.51-.14-2.91-1.44-4.37-2.2a18.82,18.82,0,0,1,3.45-2.73c3.52-1.67,5.44-4.36,5.39-8.19-.05-3,1-4,3.92-5.14a166.64,166.64,0,0,0,19.78-10c1.64-.93,2.45-3.33,3.64-5l-1.79,0c-.89-2.74-1.73-5.49-2.67-8.22-1-3-2-6-3.31-8.84-.36-.78-1.82-1.13-2.83-1.54s-2.31-.74-5-1.55a44.14,44.14,0,0,0,5.14-2.37,24.91,24.91,0,0,0,3-2.76c-1.28-1.12-2.62-3.25-3.82-3.17a49.59,49.59,0,0,0-9.87,2.19,15.33,15.33,0,0,0-3.19,1.74L141.67,181c1.3-1.65,2.3-4.24,4-4.77,4.74-1.52,6.82-5,8.53-9.09l20.25-10.92c-.55,4.31-1.45,9.07-1.72,13.87-.7,12.42-1.28,24.85-1.57,37.29a6.88,6.88,0,0,0,6.84,7.29c2.83,0,6.87-1.56,8.28-3.77a35,35,0,0,0,4.82-13.34c3.23-21.69,10.3-41.61,25.06-58.26a103.34,103.34,0,0,1,10.36-10.76c2-1.66,5-2,8.16-3.2-2.18,12.44-4.5,23.36-5.93,34.4-1.92,14.83-3.37,29.74-4.57,44.65-.47,5.87,3.25,8.83,9.1,8.49,6.51-.37,10.41-3.89,11.64-10.75a70.57,70.57,0,0,0,1.28-9.9c.9-25.12,13.56-44.41,30.34-61.68a13.74,13.74,0,0,1,3.88-3.09c1.54-.69,3.63-1.31,5-.76.89.36,1.43,2.92,1.25,4.38-.42,3.28-1.59,6.46-2.1,9.74-2.66,17.08-5.42,34.15-7.71,51.28-.94,7,1.45,13,7.66,17.3,10.2,7,22.92,5.46,30-4.73,4.43-6.4,7.82-13.52,11.62-20.35,1.08-1.95,2-4,3-6.16,2.22,7.05,3.9,13.77,6.45,20.15,4,10,11.86,15.95,22.44,16.59,10.09.61,17.77-4.88,21.63-14.07,5.05-12.08,9.12-24.58,13.69-36.86.72-1.94,1.4-4.68,2.89-5.41C401.29,156,406.78,154.25,412.14,152.2Z"/><path class="cls-2" d="M153.49,161.81l-6.73-5.23,4.75-2.65-16.4-2.62,5.79-6.21-1.21-.25c3.28-12.61,6.57-25.23,9.93-38.13-4.74,0-9.64-.32-14.47.09-4.3.36-5.16-.25-4.66-4.33q1.5-12,2.58-24.16c.22-2.47.92-5.24-2.3-7-.62-.34-.36-3.56.4-5,6-11.16,10.89-15.45,25-13.52,7.28,1,14.79.3,22.2.26.83,0,1.65-.78,3.21-1.57-6.23-6.11-15-1.7-21-5.84l.09-1.46h16c12.41,0,24.83.13,37.24,0,13.78-.18,27.57-.58,41.36-1,5.12-.15,10.24-1,15.36-.9,11.78.13,23.57.7,35.36.89,5.1.08,11,1.23,15.12-.9,6-3.1,10.4.39,15.45.44,6.23.07,12.54-2.41,18.71-4.18,2.4-.69,4.14-1.17,5.27,1.55-14.79,34-24,69.42-28.87,106.09-.81,6.08-.63,12.62-2.91,18.11-4.44,10.73-10.16,20.94-15.65,31.2a26.2,26.2,0,0,1-6,7.21c-3.12,2.69-6.1,1.78-7.22-2.21a27.55,27.55,0,0,1-.85-8.87c1.09-18.78,2.38-37.55,3.55-56.32.46-7.4-.88-14.15-8.26-17.82s-13.06.56-18.55,4.85a11.43,11.43,0,0,0-1.86,1.67c-4.52,5.53-8.91,11.16-13.51,16.61-2.45,2.9-5.25,5.48-7.9,8.21l-1.57-1c0-2-.12-4.1,0-6.14.38-5.29,1.57-10.63,1.16-15.85-.76-9.58-9.73-14.83-18.44-10.88a36.8,36.8,0,0,0-11.34,7.9c-5.59,5.9-10.38,12.55-15.6,18.8-2.11,2.53-4.49,4.83-6.74,7.23l-1.66-.75a68.51,68.51,0,0,1-1.14-8.13c-.19-7.32.07-14.66-.22-22-.15-3.71,0-9-4.68-9.23-3.17-.12-6.72,3.2-9.65,5.54-1.38,1.09-1.93,3.46-2.43,5.35-.89,3.37-1.46,6.83-2.16,10.25-.94,4.53-.86,9.62-3,13.49C170.24,152.06,163.2,158.67,153.49,161.81Z"/><path class="cls-3" d="M153.49,161.81c9.71-3.14,16.75-9.75,21.51-18.36,2.14-3.87,2.06-9,3-13.49.7-3.42,1.27-6.88,2.16-10.25.5-1.89,1.05-4.26,2.43-5.35,2.93-2.34,6.48-5.66,9.65-5.54,4.68.19,4.53,5.52,4.68,9.23.29,7.32,0,14.66.22,22a68.51,68.51,0,0,0,1.14,8.13l1.66.75c2.25-2.4,4.63-4.7,6.74-7.23,5.22-6.25,10-12.9,15.6-18.8a36.8,36.8,0,0,1,11.34-7.9c8.71-4,17.68,1.3,18.44,10.88.41,5.22-.78,10.56-1.16,15.85-.14,2,0,4.09,0,6.14l1.57,1c2.65-2.73,5.45-5.31,7.9-8.21,4.6-5.45,9-11.08,13.51-16.61a11.43,11.43,0,0,1,1.86-1.67c5.49-4.29,11.11-8.54,18.55-4.85s8.72,10.42,8.26,17.82c-1.17,18.77-2.46,37.54-3.55,56.32a27.55,27.55,0,0,0,.85,8.87c1.12,4,4.1,4.9,7.22,2.21a26.2,26.2,0,0,0,6-7.21c5.49-10.26,11.21-20.47,15.65-31.2,2.28-5.49,2.1-12,2.91-18.11,4.85-36.67,14.08-72.13,28.87-106.09,6.49-9.56,12.3-19.71,19.76-28.44C384.43,6.77,391,3.47,397.11.9s12.14.74,13,7.48a72.48,72.48,0,0,1-.62,20.15c-1,6.83-3.42,13.46-5.21,20.18-10.88,29.3-24.3,57.21-43.72,82a29.73,29.73,0,0,0-5.17,11.74c-3.41,15.54-4.61,31.28-2.26,47.12a42.06,42.06,0,0,0,2.58,10.59c2.36,5.45,7.1,6.77,11.76,3a38.14,38.14,0,0,0,8.38-9.68c5.55-8.92,7.42-19.09,9.44-29.26.9-4.57-.35-6.64-4.54-8a32.84,32.84,0,0,1-7.47-3.95c-6-3.91-8-11.14-5.55-18.63,1.81-5.45,5.91-8.73,10.89-8.68,6.65,0,10.8,3.83,12.86,12.28,1.24,5.08,1.95,10.28,2.79,14.84l18.88-5.15c18.76-1.25,36.57,4.08,54.62,7.76,16,3.27,32.09,5.94,48.52,4.6a65.76,65.76,0,0,0,13.21-2.39c10-3,17.07-9.24,20.18-19.58.92-3,1.86-7.56,6.26-6,4.1,1.49,3.19,5.85,2,9.16-5.32,14.92-16.85,22.12-31.77,24.64-17.9,3-35.48.27-53-3.44-15.44-3.27-30.79-7-46.3-9.89-4.74-.89-9.86.19-14.81.37-5.36,2.05-10.85,3.83-16,6.33-1.49.73-2.17,3.47-2.89,5.41-4.57,12.28-8.64,24.78-13.69,36.86-3.86,9.19-11.54,14.68-21.63,14.07-10.58-.64-18.45-6.61-22.44-16.59-2.55-6.38-4.23-13.1-6.45-20.15-1,2.14-1.91,4.21-3,6.16-3.8,6.83-7.19,14-11.62,20.35-7.05,10.19-19.77,11.77-30,4.73-6.21-4.3-8.6-10.29-7.66-17.3,2.29-17.13,5.05-34.2,7.71-51.28.51-3.28,1.68-6.46,2.1-9.74.18-1.46-.36-4-1.25-4.38-1.37-.55-3.46.07-5,.76a13.74,13.74,0,0,0-3.88,3.09c-16.78,17.27-29.44,36.56-30.34,61.68a70.57,70.57,0,0,1-1.28,9.9c-1.23,6.86-5.13,10.38-11.64,10.75-5.85.34-9.57-2.62-9.1-8.49,1.2-14.91,2.65-29.82,4.57-44.65,1.43-11,3.75-22,5.93-34.4-3.15,1.17-6.2,1.54-8.16,3.2a103.34,103.34,0,0,0-10.36,10.76c-14.76,16.65-21.83,36.57-25.06,58.26a35,35,0,0,1-4.82,13.34c-1.41,2.21-5.45,3.81-8.28,3.77a6.88,6.88,0,0,1-6.84-7.29c.29-12.44.87-24.87,1.57-37.29.27-4.8,1.17-9.56,1.72-13.87l-20.25,10.92c-20.11,4.48-39.31-1.16-58.64-5.29-17-3.63-34-6.9-51.45-5.62a76.15,76.15,0,0,0-18.43,3.89C17.26,162.92,12,169.18,9.2,177.64c-1,3.17-1.53,7.42-6.39,6.66-2.94-.45-3.66-5.16-1.75-10.15,5.71-14.87,17.56-21.58,32.44-23.94,19-3,37.48.45,55.92,4.45,13.65,3,27.18,6.78,41,8.75C137.86,164.47,145.77,162.44,153.49,161.81ZM397.24,46.26c2.66-10.59,5.66-21.11,7.83-31.79,1-4.8-3.17-8.18-7.74-6.45-3.68,1.4-7.87,3.73-9.83,6.89-4.52,7.26-7.81,15.29-11.6,23-9.51,22.35-19.86,72.72-15.69,80.52,2.4-2.91,4.86-5.26,6.56-8.07,5.14-8.54,10.63-17,14.81-26C387.36,71.94,392.07,59,397.24,46.26Zm-9.56,105.21,2.44-1.57c-1.89-4.93-3.47-10-5.78-14.75a2.87,2.87,0,0,0-5.44.14c-.94,2.43-1.25,6.19,0,8.13C381.06,146.62,384.69,148.84,387.68,151.47Z"/><path class="cls-4" d="M413.18,146.94l-18.88,5.15c-.84-4.56-1.55-9.76-2.79-14.84C389.45,128.8,385.3,125,378.65,125c-5,0-9.08,3.23-10.89,8.68-2.48,7.49-.41,14.72,5.55,18.63a32.84,32.84,0,0,0,7.47,3.95c4.19,1.38,5.44,3.45,4.54,8-2,10.17-3.89,20.34-9.44,29.26a38.14,38.14,0,0,1-8.38,9.68c-4.66,3.73-9.4,2.41-11.76-3a42.06,42.06,0,0,1-2.58-10.59c-2.35-15.84-1.15-31.58,2.26-47.12a29.73,29.73,0,0,1,5.17-11.74c19.42-24.78,32.84-52.69,43.72-82,1.27.82,3.15,1.35,3.72,2.52,3.15,6.49,6.05,13.12,8.91,19.76a34.73,34.73,0,0,1,2,6.62c.87,4.37,1.54,8.77,2.24,13.17,1,6.34,1.93,12.68,3,19a8,8,0,0,0,1.28,3.66c3.56,4.37,4.57,13.74,1.28,18.12a7.93,7.93,0,0,1-5.39,2.52c-9,.42-9.24.55-8.27,9.36C413.23,144.6,413.16,145.78,413.18,146.94Z"/><path class="cls-5" d="M397.24,46.26c-5.17,12.73-9.88,25.68-15.66,38.13-4.18,9-9.67,17.43-14.81,26-1.7,2.81-4.16,5.16-6.56,8.07-4.17-7.8,6.18-58.17,15.69-80.52,1.75.81,3.45,1.72,5.24,2.4C386.49,42.34,391.87,44.28,397.24,46.26Z"/><path class="cls-6" d="M397.24,46.26c-5.37-2-10.75-3.92-16.1-5.95-1.79-.68-3.49-1.59-5.24-2.4,3.79-7.71,7.08-15.74,11.6-23,2-3.16,6.15-5.49,9.83-6.89,4.57-1.73,8.71,1.65,7.74,6.45C402.9,25.15,399.9,35.67,397.24,46.26Z"/><path class="cls-7" d="M387.68,151.47c-3-2.63-6.62-4.85-8.75-8.05-1.28-1.94-1-5.7,0-8.13a2.87,2.87,0,0,1,5.44-.14c2.31,4.73,3.89,9.82,5.78,14.75Z"/></g></g></svg>