<svg id="Layer_1" data-name="Layer 1" xmlns="http://www.w3.org/2000/svg" viewBox="0 0 558.98 639.19"><defs><style>.cls-1{fill:#d1eaea;}.cls-2{fill:#d1ebea;}.cls-3{fill:#363737;}.cls-4{fill:#d0eae9;}.cls-5{fill:#252632;}.cls-6{fill:#cfe9e8;}.cls-7{fill:#fafafa;}.cls-8{fill:#cae2e1;}</style></defs><path class="cls-1" d="M1082.21,391.81c.64,1.11,1,2.88,2,3.23,5.07,1.91,3.57,6.61,4.61,10.2.15.5-.19,1.6-.55,1.73-4.36,1.53-3,4.76-2.27,8.09l-6.62,2.36c.72,1.5,1.33,2.77,2.16,4.52l-3.85.53c-.72,5.67-.72,5.67,7.54,6.94l-5.14,4.4,4.47,2.1c-5.64,4.87-3.3,10.87-2.8,16.26.29,3.13,2.41,6.23,4.2,9,2.75,4.33,1.28,14.29-2.77,20.26-6.37,9.4-15.74,14.16-26.08,17.19-18.59,5.44-37.29,10.47-56,15.66a12.69,12.69,0,0,1-2.93.46c-21.08.7-42.17,1.91-63.25,1.81-9.8-.05-19.66-2.31-29.37-4.22-10.55-2.07-20.89-5.18-31.43-7.32-12.4-2.51-23.51-7.78-34.17-14.35-10.48-6.45-22-9.8-34.22-10.95-1.52-.14-2.92-1.44-4.37-2.21a19.13,19.13,0,0,1,3.44-2.72c3.53-1.67,5.44-4.36,5.39-8.19-.05-2.95,1-4,3.92-5.14a167.54,167.54,0,0,0,19.79-10c1.63-.93,2.44-3.33,3.63-5.05l-1.79,0c-.88-2.74-1.73-5.49-2.67-8.22a93,93,0,0,0-3.31-8.84c-.36-.78-1.82-1.14-2.83-1.54s-2.3-.74-4.95-1.55a44.14,44.14,0,0,0,5.14-2.37,24.91,24.91,0,0,0,3-2.76c-1.28-1.12-2.62-3.25-3.82-3.17a50.43,50.43,0,0,0-9.87,2.18,15.86,15.86,0,0,0-3.19,1.75l-1.46-1.36c1.29-1.65,2.29-4.24,3.94-4.77,4.74-1.52,6.82-5,8.54-9.09l20.24-10.92c-.55,4.31-1.45,9.07-1.72,13.87-.7,12.42-1.27,24.85-1.57,37.29a6.88,6.88,0,0,0,6.84,7.29c2.83,0,6.87-1.56,8.28-3.77a35,35,0,0,0,4.82-13.34c3.23-21.69,10.3-41.61,25.06-58.26a102.36,102.36,0,0,1,10.36-10.76c2-1.66,5-2,8.17-3.21-2.19,12.45-4.51,23.37-5.94,34.41-1.92,14.83-3.37,29.74-4.57,44.65-.46,5.87,3.25,8.83,9.1,8.49,6.51-.37,10.41-3.89,11.64-10.75a70.57,70.57,0,0,0,1.28-9.9c.9-25.12,13.56-44.41,30.35-61.68a13.47,13.47,0,0,1,3.88-3.09c1.53-.69,3.62-1.31,5-.76.9.36,1.44,2.92,1.25,4.38-.42,3.28-1.58,6.46-2.1,9.74-2.66,17.08-5.42,34.15-7.71,51.28-.94,7,1.45,13,7.67,17.29,10.2,7,22.92,5.47,30-4.72,4.43-6.4,7.82-13.52,11.62-20.35,1.08-1.95,2-4,3-6.16,2.22,7.05,3.9,13.77,6.45,20.14,4,10,11.86,16,22.44,16.6,10.1.61,17.77-4.88,21.63-14.07,5.06-12.08,9.12-24.58,13.69-36.87.72-1.93,1.4-4.67,2.89-5.4C1071.36,395.64,1076.85,393.86,1082.21,391.81Z" transform="translate(-670.07 -239.61)"/><path class="cls-2" d="M823.56,401.42l-6.73-5.23,4.75-2.65-16.39-2.62,5.78-6.21-1.21-.25c3.28-12.61,6.57-25.23,9.93-38.13-4.74,0-9.63-.32-14.47.09-4.3.36-5.16-.25-4.66-4.33q1.5-12,2.58-24.16c.22-2.47.92-5.24-2.29-7-.62-.34-.37-3.56.39-5,6-11.16,10.89-15.45,25-13.52,7.28,1,14.79.3,22.2.25.83,0,1.66-.77,3.22-1.56-6.24-6.11-15-1.7-21-5.84l.09-1.46h16c12.41,0,24.83.13,37.24,0,13.79-.18,27.57-.58,41.36-1,5.12-.15,10.24-1,15.36-.9,11.79.13,23.57.7,35.36.89,5.1.08,11,1.23,15.13-.9,6-3.1,10.39.39,15.44.44,6.23.06,12.54-2.41,18.71-4.18,2.4-.69,4.14-1.17,5.27,1.55-14.79,34-24,69.42-28.87,106.09-.81,6.08-.63,12.62-2.9,18.11-4.44,10.73-10.17,20.94-15.66,31.2a26.2,26.2,0,0,1-6,7.21c-3.12,2.69-6.1,1.78-7.22-2.21a27.55,27.55,0,0,1-.85-8.87c1.09-18.78,2.39-37.55,3.55-56.32.46-7.4-.88-14.15-8.25-17.82s-13.07.56-18.56,4.85a12.32,12.32,0,0,0-1.86,1.66c-4.51,5.54-8.9,11.17-13.51,16.62-2.45,2.9-5.25,5.48-7.89,8.21l-1.58-1c0-2-.12-4.1,0-6.14.37-5.29,1.56-10.63,1.15-15.85-.76-9.58-9.73-14.83-18.43-10.88a36.84,36.84,0,0,0-11.35,7.9c-5.59,5.9-10.38,12.55-15.6,18.8-2.11,2.53-4.48,4.83-6.74,7.23l-1.66-.75a68.8,68.8,0,0,1-1.14-8.13c-.18-7.33.07-14.66-.22-22-.15-3.71,0-9-4.67-9.23-3.18-.12-6.73,3.2-9.66,5.54-1.37,1.09-1.92,3.46-2.43,5.35-.89,3.37-1.46,6.83-2.16,10.25-.93,4.53-.86,9.62-3,13.49C840.31,391.67,833.27,398.28,823.56,401.42Z" transform="translate(-670.07 -239.61)"/><path class="cls-3" d="M823.56,401.42c9.71-3.14,16.75-9.75,21.51-18.36,2.14-3.87,2.07-9,3-13.49.7-3.42,1.27-6.88,2.16-10.25.51-1.89,1.06-4.26,2.43-5.35,2.93-2.34,6.48-5.66,9.66-5.54,4.67.19,4.52,5.52,4.67,9.23.29,7.32,0,14.65.22,22a68.8,68.8,0,0,0,1.14,8.13l1.66.75c2.26-2.4,4.63-4.7,6.74-7.23,5.22-6.25,10-12.9,15.6-18.8a36.84,36.84,0,0,1,11.35-7.9c8.7-3.95,17.67,1.3,18.43,10.88.41,5.22-.78,10.56-1.15,15.85-.15,2,0,4.09,0,6.14l1.58,1c2.64-2.73,5.44-5.31,7.89-8.21,4.61-5.45,9-11.08,13.51-16.62a12.32,12.32,0,0,1,1.86-1.66c5.49-4.29,11.11-8.54,18.56-4.85s8.71,10.42,8.25,17.82c-1.16,18.77-2.46,37.54-3.55,56.32a27.55,27.55,0,0,0,.85,8.87c1.12,4,4.1,4.9,7.22,2.21a26.2,26.2,0,0,0,6-7.21c5.49-10.26,11.22-20.47,15.66-31.2,2.27-5.49,2.09-12,2.9-18.11,4.85-36.67,14.08-72.13,28.87-106.09,6.5-9.56,12.3-19.71,19.76-28.45,4.16-4.87,10.75-8.17,16.84-10.74s12.14.74,13,7.48a72.1,72.1,0,0,1-.62,20.15c-1,6.83-3.42,13.46-5.21,20.18-10.87,29.3-24.29,57.21-43.72,82a29.81,29.81,0,0,0-5.17,11.74c-3.4,15.54-4.61,31.28-2.26,47.12a42.5,42.5,0,0,0,2.58,10.59c2.37,5.45,7.1,6.77,11.76,3a38.18,38.18,0,0,0,8.39-9.68c5.55-8.92,7.42-19.1,9.43-29.26.9-4.57-.35-6.64-4.54-8a32.41,32.41,0,0,1-7.47-3.94c-6-3.91-8-11.14-5.55-18.63,1.81-5.45,5.91-8.73,10.89-8.69,6.65.06,10.8,3.84,12.86,12.29,1.24,5.08,2,10.28,2.79,14.84l18.89-5.15c18.75-1.25,36.56,4.08,54.61,7.76,16,3.27,32.09,5.94,48.52,4.6a65.76,65.76,0,0,0,13.21-2.39c10-3,17.07-9.24,20.18-19.58.92-3,1.87-7.56,6.26-6,4.11,1.49,3.2,5.85,2,9.16-5.33,14.92-16.86,22.12-31.78,24.64-17.89,3-35.48.27-53-3.44-15.44-3.27-30.8-7-46.31-9.89-4.74-.89-9.86.19-14.81.37-5.36,2.05-10.85,3.83-16,6.33-1.49.73-2.17,3.47-2.89,5.4-4.57,12.29-8.63,24.79-13.69,36.87-3.86,9.19-11.53,14.68-21.63,14.07-10.58-.64-18.45-6.61-22.44-16.6-2.55-6.37-4.23-13.09-6.45-20.14-1,2.14-1.91,4.21-3,6.16-3.8,6.83-7.19,14-11.62,20.35-7,10.19-19.76,11.77-30,4.72-6.22-4.29-8.61-10.28-7.67-17.29,2.29-17.13,5-34.2,7.71-51.28.52-3.28,1.68-6.46,2.1-9.74.19-1.46-.35-4-1.25-4.38-1.37-.55-3.46.07-5,.76a13.47,13.47,0,0,0-3.88,3.09c-16.79,17.27-29.45,36.56-30.35,61.68a70.57,70.57,0,0,1-1.28,9.9c-1.23,6.86-5.13,10.38-11.64,10.75-5.85.34-9.56-2.62-9.1-8.49,1.2-14.91,2.65-29.82,4.57-44.65,1.43-11,3.75-22,5.94-34.41-3.16,1.18-6.21,1.55-8.17,3.21a102.36,102.36,0,0,0-10.36,10.76c-14.76,16.65-21.83,36.57-25.06,58.26a35,35,0,0,1-4.82,13.34c-1.41,2.21-5.45,3.81-8.28,3.77a6.88,6.88,0,0,1-6.84-7.29c.3-12.44.87-24.87,1.57-37.29.27-4.8,1.17-9.56,1.72-13.87l-20.24,10.92c-20.11,4.48-39.32-1.16-58.65-5.29-17-3.63-34-6.9-51.45-5.62a76.15,76.15,0,0,0-18.43,3.89c-8.37,2.83-13.68,9.09-16.43,17.55-1,3.17-1.52,7.42-6.39,6.66-2.94-.46-3.66-5.16-1.74-10.15,5.7-14.87,17.55-21.58,32.43-23.94,19-3,37.49.45,55.92,4.45,13.66,3,27.18,6.78,41,8.75C807.93,404.08,815.84,402.05,823.56,401.42Zm243.75-115.55c2.66-10.59,5.67-21.11,7.83-31.79,1-4.8-3.17-8.18-7.74-6.45-3.68,1.4-7.87,3.73-9.83,6.89-4.51,7.26-7.81,15.28-11.6,23-9.51,22.35-19.85,72.72-15.69,80.52,2.41-2.92,4.87-5.26,6.56-8.07,5.15-8.54,10.63-17,14.81-26C1057.43,311.55,1062.14,298.6,1067.31,285.87Zm-9.56,105.21,2.45-1.57c-1.89-4.93-3.47-10-5.79-14.75a2.87,2.87,0,0,0-5.44.14c-.94,2.43-1.25,6.19,0,8.13C1051.13,386.23,1054.76,388.44,1057.75,391.08Z" transform="translate(-670.07 -239.61)"/><path class="cls-4" d="M1083.26,386.55l-18.89,5.15c-.84-4.56-1.55-9.76-2.79-14.84-2.06-8.45-6.21-12.23-12.86-12.29-5,0-9.08,3.24-10.89,8.69-2.48,7.49-.41,14.72,5.55,18.63a32.41,32.41,0,0,0,7.47,3.94c4.19,1.39,5.44,3.46,4.54,8-2,10.16-3.88,20.34-9.43,29.26a38.18,38.18,0,0,1-8.39,9.68c-4.66,3.73-9.39,2.41-11.76-3a42.5,42.5,0,0,1-2.58-10.59c-2.35-15.84-1.14-31.58,2.26-47.12a29.81,29.81,0,0,1,5.17-11.74c19.43-24.78,32.85-52.69,43.72-82,1.27.82,3.15,1.35,3.72,2.52,3.16,6.49,6.06,13.12,8.91,19.76a34,34,0,0,1,2,6.62c.87,4.37,1.54,8.77,2.24,13.17,1,6.33,1.93,12.68,3,19a7.87,7.87,0,0,0,1.29,3.66c3.55,4.37,4.56,13.74,1.27,18.12a7.93,7.93,0,0,1-5.39,2.52c-9,.42-9.23.55-8.26,9.36C1083.3,384.21,1083.23,385.39,1083.26,386.55Z" transform="translate(-670.07 -239.61)"/><path class="cls-5" d="M686.64,878.38l.38-.15.11.57a.91.91,0,0,1-.41-.09C686.65,878.66,686.67,878.5,686.64,878.38Z" transform="translate(-670.07 -239.61)"/><path class="cls-6" d="M1067.31,285.87c-5.17,12.73-9.88,25.68-15.66,38.13-4.18,9-9.66,17.43-14.81,26-1.69,2.81-4.15,5.15-6.56,8.07-4.16-7.8,6.18-58.17,15.69-80.52,1.75.81,3.45,1.72,5.25,2.4C1056.56,282,1062,283.89,1067.31,285.87Z" transform="translate(-670.07 -239.61)"/><path class="cls-7" d="M1067.31,285.87c-5.36-2-10.75-3.92-16.09-5.95-1.8-.68-3.5-1.59-5.25-2.4,3.79-7.72,7.09-15.74,11.6-23,2-3.16,6.15-5.49,9.83-6.89,4.57-1.73,8.71,1.65,7.74,6.45C1073,264.76,1070,275.28,1067.31,285.87Z" transform="translate(-670.07 -239.61)"/><path class="cls-8" d="M1057.75,391.08c-3-2.64-6.62-4.85-8.75-8.05-1.28-1.94-1-5.7,0-8.13a2.87,2.87,0,0,1,5.44-.14c2.32,4.73,3.9,9.82,5.79,14.75Z" transform="translate(-670.07 -239.61)"/></svg>